<?xml version="1.0" encoding="UTF-8" standalone="no"?>
<svg
   className="svg-stroke-ink-1"
   width="19.836"
   height="19.843"
   viewBox="0 0 19.836 19.843"
   version="1.1"
   id="svg6"
   sodipodi:docname="IconInstagram.svg"
   inkscape:version="1.2.1 (9c6d41e410, 2022-07-14)"
   xmlns:inkscape="http://www.inkscape.org/namespaces/inkscape"
   xmlns:sodipodi="http://sodipodi.sourceforge.net/DTD/sodipodi-0.dtd"
   xmlns="http://www.w3.org/2000/svg"
   xmlns:svg="http://www.w3.org/2000/svg">
  <defs
     id="defs10" />
  <sodipodi:namedview
     id="namedview8"
     pagecolor="#ffffff"
     bordercolor="#666666"
     borderopacity="1.0"
     inkscape:showpageshadow="2"
     inkscape:pageopacity="0.0"
     inkscape:pagecheckerboard="0"
     inkscape:deskcolor="#d1d1d1"
     showgrid="false"
     inkscape:zoom="14.271847"
     inkscape:cx="-4.7295911"
     inkscape:cy="11.631291"
     inkscape:window-width="1920"
     inkscape:window-height="1017"
     inkscape:window-x="-8"
     inkscape:window-y="1072"
     inkscape:window-maximized="1"
     inkscape:current-layer="svg6" />
  <path
     id="Trazado_5468"
     style=""
     fill="#E6484B"
     d="M 13.185547 0.734375 A 13.125 13.125 0 0 0 11.677734 0.74609375 C 11.301735 0.74609375 10.94314 0.74585938 10.619141 0.75585938 L 9.9199219 0.765625 C 9.9199219 0.765625 8.5711246 0.75585937 8.203125 0.75585938 A 13.363 13.363 0 0 0 3.6933594 1.2363281 A 4.37 4.37 0 0 0 1.2304688 3.6953125 A 17.3 17.3 0 0 0 0.75390625 9.2304688 L 0.75390625 9.9296875 L 0.75390625 10.611328 A 17.547 17.547 0 0 0 1.2285156 16.15625 A 4.373 4.373 0 0 0 3.6875 18.617188 A 13.146 13.146 0 0 0 8.1660156 19.101562 C 8.5420152 19.101562 8.8996566 19.101797 9.2226562 19.091797 L 9.9238281 19.082031 C 9.9238281 19.082031 11.271672 19.091797 11.638672 19.091797 A 13.368 13.368 0 0 0 16.148438 18.611328 A 4.373 4.373 0 0 0 18.611328 16.154297 A 17.336 17.336 0 0 0 19.087891 10.619141 L 19.087891 9.9179688 L 19.087891 9.21875 A 17.307 17.307 0 0 0 18.611328 3.6894531 A 4.37 4.37 0 0 0 16.154297 1.2285156 A 13.125 13.125 0 0 0 13.185547 0.734375 z M 9.9199219 5.8085938 A 4.1090002 4.1090002 0 0 1 14.027344 9.9179688 A 4.1090002 4.1090002 0 0 1 9.9199219 14.027344 A 4.1090002 4.1090002 0 0 1 5.8105469 9.9179688 A 4.1090002 4.1090002 0 0 1 9.9199219 5.8085938 z M 15.214844 14.248047 A 0.96600002 0.96600002 0 0 1 16.179688 15.212891 A 0.96600002 0.96600002 0 0 1 15.214844 16.179688 A 0.96600002 0.96600002 0 0 1 14.248047 15.212891 A 0.96600002 0.96600002 0 0 1 15.214844 14.248047 z " />
</svg>
